<svg width="40" height="40" viewBox="0 0 40 40" fill="none" xmlns="http://www.w3.org/2000/svg">
  <circle cx="20" cy="20" r="19" fill="#07C160">
    <animate attributeName="r" values="19;20;19" dur="2s" repeatCount="indefinite"/>
  </circle>
  <path d="M31 14.5C30.5 11.5 28 9 24.5 9C20 9 16 11 16 15.5V16.5C13 17 10 19 10 23C10 24 10.5 25 11.5 25.5C12.5 26 14 27 15.5 27.5C16 28.5 17.5 29.5 19.5 29.5C21 29.5 22 29 22.5 28.5C23 28.5 23.5 28.5 24 28.5C25 28.5 25.5 28 26 27.5C27.5 26.5 28.5 25 29 23.5C29.5 22 29 20.5 28 19.5C27 18.5 25.5 18 24.5 18C22.5 18 21 19 20.5 20.5C20 20.5 19.5 20 19 19.5C18 18.5 16.5 18 15.5 18C14.5 18 13.5 18.5 13 19.5C12.5 20.5 12 21.5 12 22.5C12 22 12 21.5 12 21C12 18 14.5 16 17.5 16V15.5C17.5 13 19 11 21 11C23 11 24.5 12 25 13.5C25.5 13.5 26 13.5 26.5 13.5C27.5 13.5 28 14 28.5 15C29 16 29 17 28.5 18C28 19 27 19.5 26 19.5C24 19.5 23 18 22.5 16.5C22 16.5 21.5 16.5 21 16.5C19.5 16.5 18.5 17 18 18.5C17.5 18.5 17 18 16.5 17.5C15.5 16.5 14 16 13 16C11.5 16 10.5 17 10 18.5C9.5 20 9.5 22 10 24C10 26 11.5 28 14 28.5C16 29 18 29 19.5 28.5C21 28 22.5 27 23.5 25.5C24.5 24 25 22.5 25 21C25 19.5 24.5 18 23.5 16.5C24.5 16.5 26 17 27 18C28 19 28.5 20.5 28.5 22C28.5 24 27.5 26 26 27C24.5 28 22.5 28.5 20.5 28.5C18 28.5 15.5 27.5 13.5 25.5C12 23.5 11.5 21 11.5 18.5C11.5 16.5 12 14.5 13 13C14 11.5 15.5 11 17 11C19 11 21 12 22.5 14" stroke="#004D00" stroke-width="1.5" fill="#008000">
    <animate attributeName="fill-opacity" values="0.9;1;0.9" dur="1.5s" repeatCount="indefinite"/>
    <animateTransform attributeName="transform" type="scale" values="1;1.02;1" dur="2s" repeatCount="indefinite" origin="20 20"/>
  </path>
</svg>